{"title":"Alive 1993 DvdRip Hindi [~HFR~]","uid":9662520,"size":842569415,"categoryP":"video","categoryS":"movies","magnet":"?xt=urn:btih:ac6a6ead5aa5b79cb4d745ccc06ba2b7d11b0fd3&amp;dn=Alive+1993+DvdRip+Hindi+%5B%7EHFR%7E%5D&amp;tr=udp%3A%2F%2Ftracker.openbittorrent.com%3A80&amp;tr=udp%3A%2F%2Fopen.demonii.com%3A1337&amp;tr=udp%3A%2F%2Ftracker.coppersurfer.tk%3A6969&amp;tr=udp%3A%2F%2Fexodus.desync.com%3A6969","seeders":1,"leechers":1,"uploader":"haun00","files":7,"time":1393311199,"description":"[quote][IMG]http://someimage.com/ArEQ7ru[/IMG]\n\n[img]http://img24.imageshack.us/img24/7453/infohr.png[/img]\nGeneral\n\nComplete name                            :Alive 1993 DvdRip Hindi [~HFR~].mkv\nFormat                                   : Matroska\nFormat version                           : Version 2\nFile size                                : 801 MiB\nDuration                                 : 2h 1mn\nOverall bit rate                         : 926 Kbps\n\nVideo\nID                                       : 1\nFormat                                   : AVC\nFormat/Info                              : Advanced Video Codec\nFormat profile                           : &lt;a class=&quot;__cf_email__&quot; href=&quot;/cdn-cgi/l/email-protection&quot; data-cfemail=&quot;8fc7e6e8e7cfc3bca1bf&quot;&gt;[email&amp;#160;protected]&lt;/a&gt;&lt;script cf-hash='f9e31' type=&quot;text/javascript&quot;&gt;\n/* &lt;![CDATA[ */!function(){try{var t=&quot;currentScript&quot;in document?document.currentScript:function(){for(var t=document.getElementsByTagName(&quot;script&quot;),e=t.length;e--;)if(t[e].getAttribute(&quot;cf-hash&quot;))return t[e]}();if(t&amp;&amp;t.previousSibling){var e,r,n,i,c=t.previousSibling,a=c.getAttribute(&quot;data-cfemail&quot;);if(a){for(e=&quot;&quot;,r=parseInt(a.substr(0,2),16),n=2;a.length-n;n+=2)i=parseInt(a.substr(n,2),16)^r,e+=String.fromCharCode(i);e=document.createTextNode(e),c.parentNode.replaceChild(e,c)}}}catch(u){}}();/* ]]&gt; */&lt;/script&gt;\nFormat settings, CABAC                   : Yes\nFormat settings, ReFrames                : 4 frames\nCodec ID                                 : V_MPEG4/ISO/AVC\nDuration                                 : 2h 1mn\nBit rate                                 : 700 Kbps\nWidth                                    : 704 pixels\nHeight                                   : 512 pixels\nDisplay aspect ratio                     : 1.375\nFrame rate mode                          : Constant\nFrame rate                               : 25.000 fps\nColor space                              : YUV\nChroma subsampling                       : 4:2:0\nBit depth                                : 8 bits\nScan type                                : Progressive\nBits/(Pixel*Frame)                       : 0.078\nStream size                              : 592 MiB (74%)\nWriting library                          : x264 core 138 r2358 \nLanguage                                 : English[SOURCE OWN DVD]\nDefault                                  : Yes\nForced                                   : No\n\nAudio\nID                                       : 2\nFormat                                   : AC-3\nFormat/Info                              : Audio Coding 3\nMode extension                           : CM (complete main)\nFormat settings, Endianness              : Big\nCodec ID                                 : A_AC3\nDuration                                 : 2h 1mn\nBit rate mode                            : Constant\nBit rate                                 : 224 Kbps\nChannel(s)                               : 6 channels\nChannel positions                        : Front: L C R, Side: L R, LFE\nSampling rate                            : 48.0 KHz\nBit depth                                : 16 bits\nCompression mode                         : Lossy\nStream size                              : 194 MiB (24%)\nLanguage                                 : Hindi[SOURCE OWN DVD]\nDefault                                  : Yes\nForced                                   : No\n[img]http://img4.imageshack.us/img4/959/plotbi.png[/img]\nThe amazing, true story of a Uruguayan rugby team's plane that crashed in the middle of the Andes mountains, and their immense will to survive and pull through alive, forced to do anything and everything they could to stay alive on meager rations and through the freezing cold. The only thing the team has riding on after losing so many of their good friends and family members is the slim chance of making it through alive and their faithfulness to God\n[img]http://img546.imageshack.us/img546/3949/imdblogoy.png[/img]\n[url]http://www.imdb.com/title/tt0106246/[/url]\n\n[img]http://img696.imageshack.us/img696/9545/castec.png[/img]\n\nDirector:\nFrank Marshall\nWriters:\nPiers Paul Read (book), John Patrick Shanley (screenplay)\nStars:\nEthan Hawke, Vincent Spano, Josh Hamilton \n\n[img]http://img846.imageshack.us/img846/4092/boxx.jpg[/img]\n\nBudget:\n$32,000,000 (estimated)\nGross:\n$36,733,909 (USA) \n[img]http://img31.imageshack.us/img31/640/screendta.png[/img]\n[img]http://someimage.com/pVrlIRn[/img]\n[img]http://someimage.com/BWIGkz9[/img]\n[img]http://someimage.com/jFy1918[/img]\n[img]http://someimage.com/3zpAYt6[/img]\n[img]http://someimage.com/r5lYLQf[/img]\n\n\nLike page\n\njoin Group\n\n[img]http://img98.imageshack.us/img98/4050/seedv.gif[/img][/quote]\n[color=red][size=5][font=Impact]If You Like My Upload U can Add review here[url=http://extratorrent.com/user/review_add/?user=haun]Add Review[/url][/font][/size][/color]\n[color=maroon][size=5][font=Impact]Check my torrents here [url=http://extratorrent.com/profile/haun/torrents/]HFR Torrents[/url][/font][/size][/color]","torrent":{"xt":"urn:btih:ac6a6ead5aa5b79cb4d745ccc06ba2b7d11b0fd3","amp;dn":"Alive+1993+DvdRip+Hindi+%5B%7EHFR%7E%5D","amp;tr":["udp%3A%2F%2Ftracker.openbittorrent.com%3A80","udp%3A%2F%2Fopen.demonii.com%3A1337","udp%3A%2F%2Ftracker.coppersurfer.tk%3A6969","udp%3A%2F%2Fexodus.desync.com%3A6969"],"infoHash":"ac6a6ead5aa5b79cb4d745ccc06ba2b7d11b0fd3","infoHashBuffer":{"type":"Buffer","data":[172,106,110,173,90,165,183,156,180,215,69,204,192,107,162,183,209,27,15,211]},"announce":[],"urlList":[]}}